<svg width="508" height="998" viewBox="0 0 508 998" fill="none" xmlns="http://www.w3.org/2000/svg">
<g style="mix-blend-mode:luminosity" opacity="0.04">
<path d="M108.14 37.3796L353.485 461.358C366.865 484.483 366.865 512.972 353.485 536.097L108.14 960.075C94.7604 983.2 70.0309 997.445 43.2673 997.445H187.044C213.808 997.445 238.538 983.2 251.918 960.075L497.262 536.097C510.642 512.972 510.642 484.483 497.262 461.358L251.918 37.3796C238.538 14.2545 213.804 0.0098877 187.044 0.0098877H43.2673C70.0309 0.0098877 94.7604 14.2545 108.14 37.3796Z" fill="#39435A"/>
<path d="M108.14 37.3796L119.072 56.2714C137.653 56.5424 156.953 58.0653 176.649 60.9542C215.846 66.7069 251.978 77.1925 282.849 90.8415L251.91 37.3796C238.537 14.2545 213.808 0.0098877 187.044 0.0098877H43.2673C70.0309 0.0098877 94.7604 14.2545 108.14 37.3796Z" fill="#2C374C"/>
<path d="M-168.634 37.3796L76.7104 461.358C90.0904 484.483 90.0904 512.972 76.7104 536.097L-168.634 960.075C-182.014 983.2 -206.744 997.445 -233.507 997.445H-89.7301C-62.9664 997.445 -38.2368 983.2 -24.8568 960.075L220.488 536.097C233.868 512.972 233.868 484.483 220.488 461.358L-24.8568 37.3796C-38.2404 14.2545 -62.9702 0.0098877 -89.7338 0.0098877H-233.507C-206.747 0.0098877 -182.018 14.2545 -168.634 37.3796Z" fill="#39435A"/>
<path d="M-16.0985 960.068L-261.443 536.09C-274.823 512.965 -274.823 484.476 -261.443 461.351L-16.0985 37.3725C-2.71851 14.2545 22.0112 0.0098877 48.7748 0.0098877H-95.0024C-121.766 0.0098877 -146.495 14.2545 -159.875 37.3796L-405.22 461.358C-418.6 484.483 -418.6 512.972 -405.22 536.097L-159.875 960.075C-146.495 983.2 -121.766 997.445 -95.0024 997.445H48.7748C22.0112 997.438 -2.71851 983.193 -16.0985 960.068Z" fill="white"/>
<path d="M128.391 960.068L-116.953 536.09C-130.333 512.965 -130.333 484.476 -116.953 461.351L128.391 37.3725C141.771 14.2545 166.501 0.0098877 193.265 0.0098877H49.4876C22.724 0.0098877 -2.00571 14.2545 -15.3857 37.3796L-260.73 461.358C-274.11 484.483 -274.11 512.972 -260.73 536.097L-15.3857 960.075C-2.00571 983.2 22.724 997.445 49.4876 997.445H193.265C166.501 997.438 141.771 983.193 128.391 960.068Z" fill="#E1523D"/>
</g>
</svg>
