<svg width="48" height="48" viewBox="0 0 48 48" fill="none" xmlns="http://www.w3.org/2000/svg">
<rect width="48" height="48" fill="#E1523D"/>
<path d="M24.0001 37.3333C31.3639 37.3333 37.3334 31.3638 37.3334 24C37.3334 16.6362 31.3639 10.6666 24.0001 10.6666C16.6363 10.6666 10.6667 16.6362 10.6667 24C10.6667 31.3638 16.6363 37.3333 24.0001 37.3333Z" fill="white"/>
<path d="M18.6667 27.6666C18.4134 27.6666 18.1601 27.5733 17.9601 27.3733L15.2934 24.7066C14.9068 24.32 14.9068 23.6799 15.2934 23.2932L17.9601 20.6265C18.3468 20.2399 18.9867 20.2399 19.3734 20.6265C19.7601 21.0132 19.7601 21.6533 19.3734 22.04L17.4134 23.9999L19.3734 25.9599C19.7601 26.3465 19.7601 26.9866 19.3734 27.3733C19.1734 27.5733 18.9201 27.6666 18.6667 27.6666Z" fill="#ED978B"/>
<path d="M29.3333 27.6666C29.08 27.6666 28.8267 27.5733 28.6267 27.3733C28.24 26.9866 28.24 26.3465 28.6267 25.9599L30.5867 23.9999L28.6267 22.04C28.24 21.6533 28.24 21.0132 28.6267 20.6265C29.0133 20.2399 29.6533 20.2399 30.04 20.6265L32.7067 23.2932C33.0933 23.6799 33.0933 24.32 32.7067 24.7066L30.04 27.3733C29.84 27.5733 29.5867 27.6666 29.3333 27.6666Z" fill="#ED978B"/>
<path d="M22.6667 28.1067C22.5333 28.1067 22.4 28.08 22.28 28.0267C21.7733 27.8133 21.5333 27.2267 21.76 26.7067L24.4267 20.48C24.64 19.9733 25.2267 19.7333 25.7333 19.96C26.24 20.1733 26.48 20.76 26.2533 21.28L23.5867 27.5067C23.4267 27.88 23.0533 28.1067 22.6667 28.1067Z" fill="#ED978B"/>
</svg>
