<svg width="48" height="48" viewBox="0 0 48 48" fill="none" xmlns="http://www.w3.org/2000/svg">
<rect width="48" height="48" fill="#E1523D"/>
<path d="M24 14.3333C23.8667 14.3333 23.7334 14.32 23.6134 14.2933C23.48 14.2667 23.36 14.2267 23.24 14.1867C23.12 14.1333 23 14.0667 22.8933 14C22.7866 13.92 22.68 13.84 22.5867 13.7467C22.2133 13.3733 22 12.8667 22 12.3333C22 11.8 22.2133 11.2933 22.5867 10.92C22.68 10.8267 22.7866 10.7467 22.8933 10.6667C23 10.6 23.12 10.5333 23.24 10.4933C23.36 10.44 23.48 10.4 23.6134 10.3733C24.2534 10.24 24.9467 10.4533 25.4133 10.92C25.7867 11.2933 26 11.8 26 12.3333C26 12.8667 25.7867 13.3733 25.4133 13.7467C25.04 14.12 24.52 14.3333 24 14.3333Z" fill="white"/>
<path d="M24 20.3334C23.8667 20.3334 23.7334 20.32 23.6134 20.2934C23.48 20.2667 23.36 20.2267 23.24 20.1867C23.12 20.1334 23 20.0667 22.8933 20C22.7866 19.92 22.68 19.84 22.5867 19.7467C22.2133 19.3734 22 18.8667 22 18.3334C22 17.8 22.2133 17.2934 22.5867 16.92C22.68 16.8267 22.7866 16.7467 22.8933 16.6667C23 16.6 23.12 16.5334 23.24 16.4934C23.36 16.44 23.48 16.4 23.6134 16.3734C23.8667 16.32 24.1333 16.32 24.3866 16.3734C24.52 16.4 24.64 16.44 24.76 16.4934C24.88 16.5334 25 16.6 25.1067 16.6667C25.2134 16.7467 25.32 16.8267 25.4133 16.92C25.7867 17.2934 26 17.8 26 18.3334C26 18.8667 25.7867 19.3734 25.4133 19.7467C25.32 19.84 25.2134 19.92 25.1067 20C25 20.0667 24.88 20.1334 24.76 20.1867C24.64 20.2267 24.52 20.2667 24.3866 20.2934C24.2666 20.32 24.1333 20.3334 24 20.3334Z" fill="white"/>
<path d="M24 25.6666C23.8667 25.6666 23.7334 25.6533 23.6134 25.6266C23.48 25.6 23.36 25.56 23.24 25.52C23.12 25.4666 23 25.4 22.8933 25.3333C22.7866 25.2533 22.68 25.1733 22.5867 25.08C22.4933 24.9866 22.4133 24.8933 22.3333 24.7733C22.2667 24.6666 22.2 24.5466 22.1466 24.4266C22.1066 24.3066 22.0667 24.1866 22.04 24.0533C22.0134 23.9333 22 23.8 22 23.6666C22 23.1333 22.2133 22.6266 22.5867 22.2533C22.68 22.16 22.7866 22.08 22.8933 22C23 21.9333 23.12 21.8666 23.24 21.8133C23.36 21.7733 23.48 21.7333 23.6134 21.7066C24.2534 21.5733 24.9467 21.7866 25.4133 22.2533C25.7867 22.6266 26 23.1333 26 23.6666C26 23.8 25.9866 23.9333 25.96 24.0533C25.9333 24.1866 25.8933 24.3066 25.84 24.4266C25.8 24.5466 25.7333 24.6666 25.6667 24.7733C25.5867 24.8933 25.5067 24.9866 25.4133 25.08C25.32 25.1733 25.2134 25.2533 25.1067 25.3333C25 25.4 24.88 25.4666 24.76 25.52C24.64 25.56 24.52 25.6 24.3866 25.6266C24.2666 25.6533 24.1333 25.6666 24 25.6666Z" fill="white"/>
<g opacity="0.6">
<path opacity="0.6" d="M24.0001 30.3334C23.6534 30.3334 23.3067 30.1867 23.0534 29.9467C22.8134 29.6934 22.6667 29.3467 22.6667 29C22.6667 28.6534 22.8134 28.3067 23.0534 28.0534C23.3601 27.7467 23.8268 27.6134 24.2534 27.6934C24.3468 27.7067 24.4268 27.7334 24.5068 27.7734C24.5868 27.8 24.6667 27.84 24.7334 27.8934C24.8134 27.9467 24.8801 28 24.9468 28.0534C25.1868 28.3067 25.3334 28.6534 25.3334 29C25.3334 29.3467 25.1868 29.6934 24.9468 29.9467C24.8801 30 24.8134 30.0534 24.7334 30.1067C24.6667 30.16 24.5868 30.2 24.5068 30.2267C24.4268 30.2667 24.3468 30.2934 24.2534 30.3067C24.1734 30.32 24.0801 30.3334 24.0001 30.3334Z" fill="white"/>
</g>
<g opacity="0.4">
<path opacity="0.4" d="M24 34.6667C23.8667 34.6667 23.7334 34.64 23.6134 34.5867C23.4934 34.5334 23.3866 34.4667 23.2933 34.3734C23.2 34.28 23.12 34.1734 23.08 34.0534C23.0267 33.9334 23 33.8 23 33.6667C23 33.4 23.1066 33.1467 23.2933 32.96C23.3866 32.8667 23.4934 32.8 23.6134 32.7467C23.8667 32.64 24.1333 32.64 24.3866 32.7467C24.5066 32.8 24.6134 32.8667 24.7067 32.96C24.8 33.0534 24.8667 33.16 24.92 33.28C24.9733 33.4 25 33.5334 25 33.6667C25 33.8 24.9733 33.9334 24.92 34.0534C24.8667 34.1734 24.8 34.28 24.7067 34.3734C24.6134 34.4667 24.5066 34.5334 24.3866 34.5867C24.2533 34.64 24.1333 34.6667 24 34.6667Z" fill="white"/>
</g>
<g opacity="0.2">
<path opacity="0.2" d="M24.0002 37.4267C23.8268 37.4267 23.6535 37.36 23.5335 37.2267C23.4002 37.1067 23.3335 36.9333 23.3335 36.76C23.3335 36.5867 23.4002 36.4133 23.5335 36.2933C23.7735 36.04 24.2268 36.04 24.4668 36.2933C24.6001 36.4133 24.6668 36.5867 24.6668 36.76C24.6668 36.9333 24.6001 37.1067 24.4668 37.2267C24.3468 37.36 24.1735 37.4267 24.0002 37.4267Z" fill="white"/>
</g>
<path d="M12.6667 20.3334C12.1334 20.3334 11.6268 20.12 11.2534 19.7467C10.8801 19.3734 10.6667 18.8667 10.6667 18.3334C10.6667 17.8134 10.8801 17.2934 11.2534 16.92C11.9868 16.1734 13.3334 16.1734 14.0801 16.92C14.4534 17.2934 14.6667 17.8134 14.6667 18.3334C14.6667 18.8667 14.4534 19.3734 14.0801 19.7467C13.9867 19.84 13.8801 19.92 13.7734 20C13.6668 20.0667 13.5468 20.1334 13.4268 20.1734C13.3068 20.2267 13.1867 20.2667 13.0534 20.2934C12.9334 20.32 12.8001 20.3334 12.6667 20.3334Z" fill="white"/>
<path d="M35.3335 20.3334C34.8135 20.3334 34.2935 20.12 33.9202 19.7467C33.5468 19.3734 33.3335 18.8534 33.3335 18.3334C33.3335 18.2 33.3469 18.0667 33.3735 17.9467C33.4002 17.8134 33.4401 17.6934 33.4801 17.5734C33.5335 17.4534 33.6002 17.3334 33.6668 17.2267C33.7468 17.12 33.8268 17.0134 33.9202 16.92C34.0135 16.8267 34.1201 16.7467 34.2268 16.6667C34.3335 16.6 34.4535 16.5334 34.5735 16.4934C34.6935 16.44 34.8135 16.4 34.9469 16.3734C35.2002 16.32 35.4668 16.32 35.7201 16.3734C35.8535 16.4 35.9735 16.44 36.0935 16.4934C36.2135 16.5334 36.3335 16.6 36.4402 16.6667C36.5469 16.7467 36.6535 16.8267 36.7468 16.92C36.8402 17.0134 36.9202 17.12 37.0002 17.2267C37.0668 17.3334 37.1335 17.4534 37.1735 17.5734C37.2268 17.6934 37.2668 17.8134 37.2935 17.9467C37.3201 18.0667 37.3335 18.2 37.3335 18.3334C37.3335 18.8667 37.1202 19.3734 36.7468 19.7467C36.6535 19.84 36.5469 19.92 36.4402 20C36.3335 20.0667 36.2135 20.1334 36.0935 20.1867C35.9735 20.2267 35.8535 20.2667 35.7201 20.2934C35.5868 20.32 35.4668 20.3334 35.3335 20.3334Z" fill="white"/>
<g opacity="0.6">
<path opacity="0.6" d="M35.3333 25C35.2533 25 35.16 24.9867 35.08 24.9733C34.9867 24.96 34.9067 24.9333 34.8267 24.8933C34.7467 24.8667 34.6667 24.8267 34.5867 24.7733C34.52 24.7333 34.4533 24.6667 34.3866 24.6133C34.3333 24.5467 34.2666 24.48 34.2266 24.4134C34.1733 24.3334 34.1334 24.2533 34.1067 24.1733C34.0667 24.0933 34.04 24.0133 34.0267 23.9333C34.0134 23.84 34 23.76 34 23.6667C34 23.32 34.1466 22.9733 34.3866 22.72C34.4533 22.6667 34.52 22.6133 34.5867 22.56C34.6667 22.5067 34.7467 22.4667 34.8267 22.44C34.9067 22.4 34.9867 22.3734 35.08 22.36C35.24 22.32 35.4133 22.32 35.5867 22.36C35.68 22.3734 35.76 22.4 35.84 22.44C35.92 22.4667 36 22.5067 36.0667 22.56C36.1467 22.6133 36.2134 22.6667 36.28 22.72C36.52 22.9733 36.6667 23.32 36.6667 23.6667C36.6667 23.76 36.6533 23.84 36.64 23.9333C36.6266 24.0133 36.6 24.0933 36.56 24.1733C36.5333 24.2533 36.4934 24.3334 36.44 24.4134C36.3867 24.48 36.3334 24.5467 36.28 24.6133C36.2134 24.6667 36.1467 24.7333 36.0667 24.7733C36 24.8267 35.92 24.8667 35.84 24.8933C35.76 24.9333 35.68 24.96 35.5867 24.9733C35.5067 24.9867 35.4133 25 35.3333 25Z" fill="white"/>
</g>
<g opacity="0.6">
<path opacity="0.6" d="M12.6668 25C12.3202 25 11.9735 24.8534 11.7201 24.6134C11.4801 24.36 11.3335 24.0134 11.3335 23.6667C11.3335 23.32 11.4801 22.9734 11.7201 22.72C12.0935 22.3467 12.6802 22.2267 13.1735 22.44C13.3468 22.5067 13.4802 22.6 13.6135 22.72C13.8535 22.9734 14.0002 23.32 14.0002 23.6667C14.0002 24.0134 13.8535 24.36 13.6135 24.6134C13.3602 24.8534 13.0135 25 12.6668 25Z" fill="white"/>
</g>
<g opacity="0.4">
<path opacity="0.4" d="M35.3335 28.6667C35.0668 28.6667 34.8135 28.56 34.6268 28.3733C34.4401 28.1867 34.3335 27.9333 34.3335 27.6667C34.3335 27.5333 34.3602 27.4133 34.4135 27.28C34.4668 27.16 34.5335 27.0533 34.6268 26.96C34.9068 26.68 35.3468 26.5867 35.7201 26.7467C35.8401 26.8 35.9469 26.8667 36.0402 26.96C36.1335 27.0533 36.2002 27.16 36.2535 27.28C36.3068 27.4133 36.3335 27.5333 36.3335 27.6667C36.3335 27.9333 36.2269 28.1867 36.0402 28.3733C35.9469 28.4667 35.8401 28.5333 35.7201 28.5867C35.5868 28.64 35.4668 28.6667 35.3335 28.6667Z" fill="white"/>
</g>
<g opacity="0.4">
<path opacity="0.4" d="M12.6667 28.6667C12.4001 28.6667 12.1467 28.56 11.96 28.3733C11.8667 28.28 11.7867 28.1733 11.7467 28.0533C11.6934 27.9333 11.6667 27.8 11.6667 27.6667C11.6667 27.5333 11.6934 27.4133 11.7467 27.28C11.7867 27.16 11.8667 27.0533 11.96 26.96C12.32 26.5867 13.0001 26.5867 13.3735 26.96C13.4668 27.0533 13.5334 27.16 13.5868 27.28C13.6401 27.4133 13.6667 27.5333 13.6667 27.6667C13.6667 27.8 13.6401 27.9333 13.5868 28.0533C13.5334 28.1733 13.4668 28.28 13.3735 28.3733C13.1868 28.56 12.9334 28.6667 12.6667 28.6667Z" fill="white"/>
</g>
<g opacity="0.2">
<path opacity="0.2" d="M35.3334 32C35.2401 32 35.1601 31.9867 35.0801 31.9467C35.0001 31.92 34.9201 31.8667 34.8668 31.8C34.7334 31.68 34.6667 31.5067 34.6667 31.3334C34.6667 31.16 34.7334 30.9867 34.8668 30.8667C35.1068 30.6134 35.56 30.6134 35.8 30.8667C35.9334 30.9867 36.0001 31.16 36.0001 31.3334C36.0001 31.5067 35.9334 31.68 35.8 31.8C35.68 31.9334 35.5067 32 35.3334 32Z" fill="white"/>
</g>
<g opacity="0.2">
<path opacity="0.2" d="M12.6667 32C12.4933 32 12.32 31.9334 12.2 31.8C12.0667 31.68 12 31.5067 12 31.3334C12 31.16 12.0667 30.9867 12.2 30.8667C12.44 30.6134 12.8933 30.6134 13.1333 30.8667C13.2666 30.9867 13.3333 31.16 13.3333 31.3334C13.3333 31.5067 13.2666 31.68 13.1333 31.8C13.0133 31.9334 12.84 32 12.6667 32Z" fill="white"/>
</g>
<path d="M18.3335 17.3334C18.2002 17.3334 18.0669 17.32 17.9469 17.2934C17.8135 17.2667 17.6935 17.2267 17.5735 17.1734C17.4402 17.1334 17.3335 17.0667 17.2268 17C17.1068 16.92 17.0135 16.84 16.9202 16.7467C16.5468 16.3734 16.3335 15.8534 16.3335 15.3334C16.3335 14.8134 16.5468 14.2934 16.9202 13.92C17.6668 13.1734 19.0002 13.1734 19.7468 13.92C20.1202 14.2934 20.3335 14.8 20.3335 15.3334C20.3335 15.8667 20.1202 16.3734 19.7468 16.7467C19.6535 16.84 19.5469 16.92 19.4402 17C19.3335 17.0667 19.2135 17.1334 19.0935 17.1734C18.9735 17.2267 18.8535 17.2667 18.7201 17.2934C18.6001 17.32 18.4668 17.3334 18.3335 17.3334Z" fill="white"/>
<path d="M29.6667 17.3334C29.5334 17.3334 29.4001 17.32 29.2801 17.2934C29.1468 17.2667 29.0267 17.2267 28.9067 17.1734C28.7867 17.1334 28.6667 17.0667 28.5601 17C28.4534 16.92 28.3468 16.84 28.2534 16.7467C28.1601 16.6534 28.0801 16.5467 28.0001 16.44C27.9334 16.3334 27.8667 16.2134 27.8134 16.0934C27.7734 15.9734 27.7335 15.8534 27.7068 15.72C27.6801 15.6 27.6667 15.4667 27.6667 15.3334C27.6667 14.8134 27.8801 14.2934 28.2534 13.92C28.3468 13.8267 28.4534 13.7467 28.5601 13.6667C28.6667 13.6 28.7867 13.5334 28.9067 13.4934C29.0267 13.44 29.1468 13.4 29.2801 13.3734C29.5334 13.32 29.8001 13.32 30.0534 13.3734C30.1867 13.4 30.3068 13.44 30.4268 13.4934C30.5468 13.5334 30.6668 13.6 30.7734 13.6667C30.8801 13.7467 30.9867 13.8267 31.0801 13.92C31.4534 14.2934 31.6667 14.8134 31.6667 15.3334C31.6667 15.4667 31.6534 15.6 31.6267 15.72C31.6 15.8534 31.5601 15.9734 31.5201 16.0934C31.4668 16.2134 31.4001 16.3334 31.3334 16.44C31.2534 16.5467 31.1734 16.6534 31.0801 16.7467C30.9867 16.84 30.8801 16.92 30.7734 17C30.6668 17.0667 30.5468 17.1334 30.4268 17.1734C30.3068 17.2267 30.1867 17.2667 30.0534 17.2934C29.9334 17.32 29.8001 17.3334 29.6667 17.3334Z" fill="white"/>
<path d="M18.3335 23.0001C18.2002 23.0001 18.0669 22.9867 17.9469 22.9601C17.8135 22.9334 17.6935 22.8934 17.5735 22.8534C17.4535 22.8001 17.3335 22.7334 17.2268 22.6667C17.1068 22.5867 17.0135 22.5067 16.9202 22.4134C16.5468 22.0401 16.3335 21.5201 16.3335 21.0001C16.3335 20.4667 16.5468 19.9601 16.9202 19.5867C17.6668 18.8401 19.0002 18.8401 19.7468 19.5867C20.1202 19.9601 20.3335 20.4667 20.3335 21.0001C20.3335 21.5334 20.1202 22.0401 19.7468 22.4134C19.3735 22.7867 18.8535 23.0001 18.3335 23.0001Z" fill="white"/>
<path d="M29.6667 23C29.5334 23 29.4001 22.9867 29.2801 22.96C29.1468 22.9333 29.0267 22.8933 28.9067 22.84C28.7867 22.8 28.6667 22.7333 28.5601 22.6667C28.4534 22.5867 28.3468 22.5067 28.2534 22.4133C28.1601 22.32 28.0801 22.2133 28.0001 22.1067C27.9334 22 27.8667 21.88 27.8134 21.76C27.7734 21.64 27.7335 21.52 27.7068 21.3867C27.6801 21.2667 27.6667 21.1333 27.6667 21C27.6667 20.48 27.8801 19.96 28.2534 19.5867C28.3468 19.4933 28.4534 19.4133 28.5601 19.3333C28.6667 19.2667 28.7867 19.2 28.9067 19.16C29.0267 19.1067 29.1468 19.0667 29.2801 19.04C29.5334 18.9867 29.8001 18.9867 30.0534 19.04C30.1867 19.0667 30.3068 19.1067 30.4268 19.16C30.5468 19.2 30.6668 19.2667 30.7734 19.3333C30.8801 19.4133 30.9867 19.4933 31.0801 19.5867C31.4534 19.96 31.6667 20.48 31.6667 21C31.6667 21.1333 31.6534 21.2667 31.6267 21.3867C31.6 21.52 31.5601 21.64 31.5201 21.76C31.4668 21.88 31.4001 22 31.3334 22.1067C31.2534 22.2133 31.1734 22.32 31.0801 22.4133C30.9867 22.5067 30.8801 22.5867 30.7734 22.6667C30.6668 22.7333 30.5468 22.8 30.4268 22.84C30.3068 22.8933 30.1867 22.9333 30.0534 22.96C29.9334 22.9867 29.8001 23 29.6667 23Z" fill="white"/>
<g opacity="0.6">
<path opacity="0.6" d="M18.3333 27.6667C18.16 27.6667 17.9867 27.6267 17.8267 27.56C17.6533 27.4933 17.5066 27.4 17.3866 27.28C17.2666 27.1467 17.1734 27 17.1067 26.84C17.04 26.68 17 26.5067 17 26.3333C17 25.9867 17.1466 25.64 17.3866 25.3867C17.88 24.8933 18.7867 24.8933 19.28 25.3867C19.52 25.64 19.6667 25.9867 19.6667 26.3333C19.6667 26.5067 19.6266 26.68 19.56 26.84C19.4933 27 19.4 27.1467 19.28 27.28C19.0267 27.52 18.68 27.6667 18.3333 27.6667Z" fill="white"/>
</g>
<g opacity="0.6">
<path opacity="0.6" d="M29.6668 27.6667C29.3202 27.6667 28.9735 27.52 28.7201 27.28C28.4801 27.0267 28.3335 26.68 28.3335 26.3333C28.3335 25.9867 28.4801 25.64 28.7201 25.3867C29.2135 24.8933 30.1069 24.8933 30.6135 25.3867C30.8535 25.64 31.0002 25.9867 31.0002 26.3333C31.0002 26.4267 30.9868 26.5067 30.9735 26.6C30.9601 26.68 30.9335 26.76 30.8935 26.84C30.8668 26.92 30.8269 27 30.7735 27.0667C30.7202 27.1467 30.6669 27.2133 30.6135 27.28C30.3602 27.52 30.0135 27.6667 29.6668 27.6667Z" fill="white"/>
</g>
<g opacity="0.4">
<path opacity="0.4" d="M18.3335 31.6667C18.0668 31.6667 17.8135 31.56 17.6268 31.3734C17.5335 31.28 17.4668 31.1734 17.4135 31.0534C17.3602 30.9334 17.3335 30.8 17.3335 30.6667C17.3335 30.5334 17.3602 30.4134 17.4135 30.28C17.4668 30.16 17.5335 30.0534 17.6268 29.96C17.7201 29.8667 17.8269 29.8 17.9469 29.7467C18.1869 29.64 18.4668 29.64 18.7201 29.7467C18.8401 29.8 18.9469 29.8667 19.0402 29.96C19.2269 30.1467 19.3335 30.4 19.3335 30.6667C19.3335 30.8 19.3068 30.9334 19.2535 31.0534C19.2002 31.1734 19.1335 31.28 19.0402 31.3734C18.8535 31.56 18.6002 31.6667 18.3335 31.6667Z" fill="white"/>
</g>
<g opacity="0.4">
<path opacity="0.4" d="M29.6667 31.6667C29.5334 31.6667 29.4001 31.64 29.2801 31.5867C29.1601 31.5334 29.0534 31.4667 28.96 31.3734C28.8667 31.28 28.7867 31.1734 28.7467 31.0534C28.6934 30.9334 28.6667 30.8 28.6667 30.6667C28.6667 30.5334 28.6934 30.4 28.7467 30.28C28.8001 30.16 28.8667 30.0534 28.96 29.96C29.0534 29.8667 29.1601 29.8 29.2801 29.7467C29.5201 29.64 29.8001 29.64 30.0534 29.7467C30.1734 29.8 30.2801 29.8667 30.3735 29.96C30.4668 30.0534 30.5334 30.16 30.5868 30.28C30.6401 30.4 30.6667 30.5334 30.6667 30.6667C30.6667 30.8 30.6401 30.9334 30.5868 31.0534C30.5334 31.1734 30.4668 31.28 30.3735 31.3734C30.1868 31.56 29.9334 31.6667 29.6667 31.6667Z" fill="white"/>
</g>
<g opacity="0.2">
<path opacity="0.2" d="M18.3334 34.6667C18.1601 34.6667 17.9868 34.6001 17.8668 34.4667C17.7334 34.3467 17.6667 34.1734 17.6667 34.0001C17.6667 33.8267 17.7334 33.6534 17.8668 33.5334C18.1068 33.2801 18.56 33.2801 18.8 33.5334C18.9334 33.6534 19.0001 33.8267 19.0001 34.0001C19.0001 34.1734 18.9334 34.3467 18.8 34.4667C18.68 34.6001 18.5067 34.6667 18.3334 34.6667Z" fill="white"/>
</g>
<g opacity="0.2">
<path opacity="0.2" d="M29.6667 34.6667C29.5733 34.6667 29.4933 34.6534 29.4133 34.6134C29.3333 34.5867 29.2534 34.5334 29.2 34.4667C29.1334 34.4134 29.08 34.3334 29.0533 34.2534C29.0133 34.1734 29 34.0934 29 34.0001C29 33.8267 29.0667 33.6534 29.2 33.5334C29.44 33.2801 29.8933 33.2801 30.1333 33.5334C30.2666 33.6534 30.3333 33.8267 30.3333 34.0001C30.3333 34.0934 30.32 34.1734 30.28 34.2534C30.2534 34.3334 30.2 34.4134 30.1333 34.4667C30.0133 34.6001 29.84 34.6667 29.6667 34.6667Z" fill="white"/>
</g>
</svg>
