<svg width="576" height="333" viewBox="0 0 576 333" fill="none" xmlns="http://www.w3.org/2000/svg">
<g opacity="0.08">
<path d="M333.481 25.1941L482.31 303.849C490.426 319.047 490.426 337.772 482.31 352.97L333.481 631.625C325.365 646.823 310.364 656.186 294.128 656.186H381.345C397.58 656.186 412.581 646.823 420.698 631.625L569.526 352.97C577.643 337.772 577.643 319.047 569.526 303.849L420.698 25.1941C412.581 9.99538 397.578 0.633301 381.345 0.633301H294.128C310.364 0.633301 325.365 9.99538 333.481 25.1941Z" fill="#39435A"/>
<path d="M333.481 25.1941L340.112 37.6105C351.384 37.7886 363.091 38.7895 375.039 40.6882C398.816 44.4691 420.735 51.3606 439.461 60.3313L420.693 25.1941C412.581 9.99538 397.58 0.633301 381.345 0.633301H294.128C310.364 0.633301 325.365 9.99538 333.481 25.1941Z" fill="#2C374C"/>
<path d="M165.587 25.1941L314.415 303.849C322.532 319.047 322.532 337.772 314.415 352.97L165.587 631.625C157.47 646.823 142.469 656.186 126.234 656.186H213.451C229.686 656.186 244.687 646.823 252.804 631.625L401.632 352.97C409.749 337.772 409.749 319.047 401.632 303.849L252.804 25.1941C244.685 9.99538 229.684 0.633301 213.449 0.633301H126.234C142.467 0.633301 157.468 9.99538 165.587 25.1941Z" fill="#39435A"/>
<path d="M172.133 631.618L23.304 352.964C15.1875 337.765 15.1875 319.041 23.304 303.842L172.133 25.1875C180.249 9.98879 195.25 0.626709 211.485 0.626709H124.269C108.034 0.626709 93.0323 9.98879 84.9158 25.1875L-63.9127 303.842C-72.0291 319.041 -72.0291 337.765 -63.9127 352.964L84.9158 631.618C93.0323 646.817 108.034 656.179 124.269 656.179H211.485C195.25 656.179 180.249 646.817 172.133 631.618Z" fill="#E1523D"/>
<path d="M258.117 631.62L109.288 352.966C101.172 337.767 101.172 319.043 109.288 303.844L258.117 25.1894C266.233 9.99538 281.234 0.633301 297.469 0.633301H210.253C194.018 0.633301 179.016 9.99538 170.9 25.1941L22.0714 303.849C13.9549 319.047 13.9549 337.772 22.0714 352.97L170.9 631.625C179.016 646.823 194.018 656.186 210.253 656.186H297.469C281.234 656.181 266.233 646.819 258.117 631.62Z" fill="white"/>
<path d="M345.766 631.62L196.937 352.966C188.821 337.767 188.821 319.043 196.937 303.844L345.766 25.1894C353.882 9.99538 368.883 0.633301 385.118 0.633301H297.902C281.667 0.633301 266.665 9.99538 258.549 25.1941L109.72 303.849C101.604 319.047 101.604 337.772 109.72 352.97L258.549 631.625C266.665 646.823 281.667 656.186 297.902 656.186H385.118C368.883 656.181 353.882 646.819 345.766 631.62Z" fill="#E1523D"/>
</g>
</svg>
