<svg width="43" height="40" viewBox="0 0 43 40" fill="none" xmlns="http://www.w3.org/2000/svg">
<path d="M26.6738 1.49911L36.5128 18.5017C37.0494 19.4291 37.0494 20.5716 36.5128 21.499L26.6738 38.5016C26.1373 39.429 25.1456 40.0002 24.0723 40.0002H29.8381C30.9114 40.0002 31.9031 39.429 32.4397 38.5016L42.2786 21.499C42.8152 20.5716 42.8152 19.4291 42.2786 18.5017L32.4397 1.49911C31.9031 0.571732 30.9112 0.000488281 29.8381 0.000488281H24.0723C25.1456 0.000488281 26.1373 0.571732 26.6738 1.49911Z" fill="#39435A"/>
<path d="M26.6738 1.49911L27.1122 2.25672C27.8574 2.26759 28.6313 2.32866 29.4212 2.44451C30.9931 2.67521 32.4421 3.09571 33.6801 3.64307L32.4394 1.49911C31.9031 0.571732 30.9114 0.000488281 29.8381 0.000488281H24.0723C25.1456 0.000488281 26.1373 0.571732 26.6738 1.49911Z" fill="#2C374C"/>
<path d="M15.5746 1.49911L25.4135 18.5017C25.9501 19.4291 25.9501 20.5716 25.4135 21.499L15.5746 38.5016C15.038 39.429 14.0463 40.0002 12.973 40.0002H18.7389C19.8121 40.0002 20.8039 39.429 21.3404 38.5016L31.1794 21.499C31.716 20.5716 31.716 19.4291 31.1794 18.5017L21.3404 1.49911C20.8037 0.571732 19.812 0.000488281 18.7387 0.000488281H12.973C14.0462 0.000488281 15.0379 0.571732 15.5746 1.49911Z" fill="#39435A"/>
<path d="M16.0072 38.5011L6.16826 21.4985C5.63169 20.5711 5.63169 19.4286 6.16826 18.5012L16.0072 1.49862C16.5438 0.571244 17.5355 0 18.6088 0H12.843C11.7697 0 10.7779 0.571244 10.2414 1.49862L0.40243 18.5012C-0.134143 19.4286 -0.134143 20.5711 0.40243 21.4985L10.2414 38.5011C10.7779 39.4285 11.7697 39.9997 12.843 39.9997H18.6088C17.5355 39.9997 16.5438 39.4285 16.0072 38.5011Z" fill="#E1523D"/>
<path d="M21.6917 38.5013L11.8527 21.4987C11.3161 20.5713 11.3161 19.4288 11.8527 18.5014L21.6917 1.49883C22.2282 0.571733 23.2199 0.000488281 24.2932 0.000488281H18.5274C17.4541 0.000488281 16.4624 0.571732 15.9258 1.49911L6.08688 18.5017C5.5503 19.4291 5.5503 20.5716 6.08688 21.499L15.9258 38.5016C16.4624 39.429 17.4541 40.0002 18.5274 40.0002H24.2932C23.2199 39.9999 22.2282 39.4287 21.6917 38.5013Z" fill="white"/>
<path d="M27.486 38.5013L17.647 21.4987C17.1104 20.5713 17.1104 19.4288 17.647 18.5014L27.486 1.49883C28.0225 0.571733 29.0143 0.000488281 30.0876 0.000488281H24.3217C23.2484 0.000488281 22.2567 0.571732 21.7201 1.49911L11.8812 18.5017C11.3446 19.4291 11.3446 20.5716 11.8812 21.499L21.7201 38.5016C22.2567 39.429 23.2484 40.0002 24.3217 40.0002H30.0876C29.0143 39.9999 28.0225 39.4287 27.486 38.5013Z" fill="#E1523D"/>
</svg>
