<svg width="48" height="48" viewBox="0 0 48 48" fill="none" xmlns="http://www.w3.org/2000/svg">
<rect width="48" height="48" fill="#E1523D"/>
<path d="M34 18L32.0133 19.9867L28.0133 15.9867L30 14C30.56 13.44 31.28 13.1733 32 13.1733C32.72 13.1733 33.44 13.44 34 14C35.1066 15.1067 35.1066 16.8933 34 18Z" fill="#ED978B"/>
<path d="M32.0133 19.9867L16.6667 35.3334C15.56 36.44 13.7733 36.44 12.6667 35.3334C11.56 34.2267 11.56 32.44 12.6667 31.3334L28.0133 15.9867L32.0133 19.9867Z" fill="white"/>
<path d="M21.2666 12.6667L21.8133 10.8134C21.8666 10.64 21.8133 10.4534 21.6933 10.32C21.5733 10.1867 21.36 10.1334 21.1866 10.1867L19.3333 10.7334L17.48 10.1867C17.3066 10.1334 17.12 10.1867 16.9866 10.3067C16.8533 10.44 16.8133 10.6267 16.8666 10.8L17.4 12.6667L16.8533 14.52C16.8 14.6934 16.8533 14.88 16.9733 15.0134C17.1066 15.1467 17.2933 15.1867 17.4666 15.1334L19.3333 14.6L21.1866 15.1467C21.24 15.16 21.28 15.1734 21.3333 15.1734C21.4666 15.1734 21.5866 15.12 21.6933 15.0267C21.8266 14.8934 21.8666 14.7067 21.8133 14.5334L21.2666 12.6667Z" fill="#ED978B"/>
<path d="M15.9333 20.6667L16.4799 18.8134C16.5333 18.64 16.4799 18.4534 16.3599 18.32C16.2266 18.1867 16.0399 18.1467 15.8666 18.2L13.9999 18.7334L12.1466 18.1867C11.9733 18.1334 11.7866 18.1867 11.6533 18.3067C11.5199 18.44 11.4799 18.6267 11.5333 18.8L12.0666 20.6667L11.5199 22.52C11.4666 22.6934 11.5199 22.88 11.6399 23.0134C11.7733 23.1467 11.9599 23.1867 12.1333 23.1334L13.9866 22.5867L15.8399 23.1334C15.8799 23.1467 15.9333 23.1467 15.9866 23.1467C16.1199 23.1467 16.2399 23.0934 16.3466 23C16.4799 22.8667 16.5199 22.68 16.4666 22.5067L15.9333 20.6667Z" fill="#ED978B"/>
<path d="M35.9333 27.3333L36.48 25.48C36.5333 25.3067 36.48 25.12 36.36 24.9867C36.2267 24.8533 36.04 24.8133 35.8667 24.8667L34.0133 25.4133L32.16 24.8667C31.9867 24.8133 31.8 24.8667 31.6667 24.9867C31.5333 25.12 31.4933 25.3067 31.5467 25.48L32.0933 27.3333L31.5467 29.1867C31.4933 29.36 31.5467 29.5467 31.6667 29.68C31.8 29.8133 31.9867 29.8533 32.16 29.8L34.0133 29.2533L35.8667 29.8C35.9067 29.8133 35.96 29.8133 36.0133 29.8133C36.1467 29.8133 36.2667 29.76 36.3733 29.6667C36.5067 29.5333 36.5467 29.3467 36.4933 29.1733L35.9333 27.3333Z" fill="#ED978B"/>
</svg>
