<svg width="48" height="48" viewBox="0 0 48 48" fill="none" xmlns="http://www.w3.org/2000/svg">
<rect width="48" height="48" fill="#E1523D"/>
<path opacity="0.4" d="M32.4666 34.24C31.7333 36.12 29.9466 37.3333 27.9333 37.3333H20.0666C18.04 37.3333 16.2666 36.12 15.5333 34.24C14.8 32.3467 15.3066 30.2533 16.8 28.8933L22.2 24H25.8133L31.2 28.8933C32.6933 30.2533 33.1866 32.3467 32.4666 34.24Z" fill="white"/>
<path d="M26.4267 32.1867H21.5734C21.0667 32.1867 20.6667 31.7734 20.6667 31.28C20.6667 30.7733 21.0801 30.3734 21.5734 30.3734H26.4267C26.9334 30.3734 27.3334 30.7867 27.3334 31.28C27.3334 31.7734 26.9201 32.1867 26.4267 32.1867Z" fill="white"/>
<path d="M32.4667 13.76C31.7334 11.88 29.9467 10.6667 27.9334 10.6667H20.0667C18.0534 10.6667 16.2667 11.88 15.5334 13.76C14.8134 15.6534 15.3067 17.7467 16.8134 19.1067L22.2 24H25.8134L31.2 19.1067C32.6934 17.7467 33.1867 15.6534 32.4667 13.76ZM26.4267 17.64H21.5734C21.0667 17.64 20.6667 17.2267 20.6667 16.7334C20.6667 16.24 21.0801 15.8267 21.5734 15.8267H26.4267C26.9334 15.8267 27.3334 16.24 27.3334 16.7334C27.3334 17.2267 26.92 17.64 26.4267 17.64Z" fill="white"/>
</svg>
