<svg width="48" height="48" viewBox="0 0 48 48" fill="none" xmlns="http://www.w3.org/2000/svg">
<rect width="48" height="48" fill="#E1523D"/>
<path d="M29.6534 12.8666H18.3467C15.0534 12.8666 12.3867 15.5466 12.3867 18.8266V31.3733C12.3867 34.6533 15.0667 37.3333 18.3467 37.3333H29.6401C32.9334 37.3333 35.6001 34.6533 35.6001 31.3733V18.8266C35.6134 15.5333 32.9334 12.8666 29.6534 12.8666Z" fill="white"/>
<path d="M27.1333 10.6667H20.8667C19.48 10.6667 18.3467 11.7867 18.3467 13.1734V14.4267C18.3467 15.8134 19.4667 16.9334 20.8533 16.9334H27.1333C28.52 16.9334 29.64 15.8134 29.64 14.4267V13.1734C29.6533 11.7867 28.52 10.6667 27.1333 10.6667Z" fill="#ED978B"/>
<path d="M22.4133 30.6C22.16 30.6 21.9066 30.5067 21.7066 30.3067L19.7066 28.3067C19.32 27.92 19.32 27.28 19.7066 26.8934C20.0933 26.5067 20.7333 26.5067 21.12 26.8934L22.4133 28.1867L27.04 23.56C27.4266 23.1734 28.0666 23.1734 28.4533 23.56C28.84 23.9467 28.84 24.5867 28.4533 24.9734L23.12 30.3067C22.9333 30.5067 22.6666 30.6 22.4133 30.6Z" fill="#ED978B"/>
</svg>
