<svg width="48" height="48" viewBox="0 0 48 48" fill="none" xmlns="http://www.w3.org/2000/svg">
<rect width="48" height="48" fill="#E1523D"/>
<path d="M22.6667 34.68C29.3014 34.68 34.68 29.3014 34.68 22.6667C34.68 16.0319 29.3014 10.6533 22.6667 10.6533C16.0319 10.6533 10.6533 16.0319 10.6533 22.6667C10.6533 29.3014 16.0319 34.68 22.6667 34.68Z" fill="white"/>
<path d="M26.6666 21.6666H18.6666C18.12 21.6666 17.6666 21.2133 17.6666 20.6666C17.6666 20.12 18.12 19.6666 18.6666 19.6666H26.6666C27.2133 19.6666 27.6666 20.12 27.6666 20.6666C27.6666 21.2133 27.2133 21.6666 26.6666 21.6666Z" fill="#ED978B"/>
<path d="M22.6666 25.6666H18.6666C18.12 25.6666 17.6666 25.2133 17.6666 24.6666C17.6666 24.12 18.12 23.6666 18.6666 23.6666H22.6666C23.2133 23.6666 23.6666 24.12 23.6666 24.6666C23.6666 25.2133 23.2133 25.6666 22.6666 25.6666Z" fill="#ED978B"/>
<path d="M37.3201 33.2667C36.8801 32.4533 35.9468 32 34.6934 32C33.7468 32 32.9334 32.3867 32.4534 33.0533C31.9734 33.72 31.8668 34.6133 32.1601 35.5067C32.7334 37.24 33.7334 37.6267 34.2801 37.6933C34.3601 37.7067 34.4401 37.7067 34.5334 37.7067C35.1201 37.7067 36.0268 37.4533 36.9068 36.1333C37.6134 35.1067 37.7468 34.08 37.3201 33.2667Z" fill="white"/>
</svg>
